# AST/ASF file generated using VICON BodyLanguage
# -----------------------------------------------
:version 1.10
:name VICON
:units
  mass 1.0
  length 0.45
  angle deg
:documentation
   .ast/.asf automatically generated from VICON data using
   VICON BodyBuilder and BodyLanguage model FoxedUp or BRILLIANT.MOD
:root
   order TX TY TZ RX RY RZ
   axis XYZ
   position 0 0 0  
   orientation 0 0 0 
:bonedata
  begin
     id 1 
     name lhipjoint
     direction 0.589753 -0.68606 0.426044 
     length 2.54082 
     axis 0 0 0  XYZ
  end
  begin
     id 2 
     name lfemur
     direction 0.34202 -0.939693 0  
     length 7.04539  
     axis 0 0 20  XYZ
    dof rx ry rz
    limits (-160.0 20.0)
           (-70.0 70.0)
           (-60.0 70.0)
  end
  begin
     id 3 
     name ltibia
     direction 0.34202 -0.939693 0   
     length 7.83772   
     axis 0 0 20   XYZ
    dof rx
    limits (-10.0 170.0)
  end
  begin
     id 4 
     name lfoot
     direction 0.0596604 -0.163915 0.984669   
     length 2.39542   
     axis -90 7.62852e-016 20   XYZ
    dof rx rz
    limits (-45.0 90.0)
           (-70.0 20.0)
  end
  begin
     id 5 
     name ltoes
     direction 1.53514e-011 -4.21954e-011 1   
     length 1.2047   
     axis -90 7.62852e-016 20   XYZ
    dof rx
    limits (-90.0 20.0)
  end
  begin
     id 6 
     name rhipjoint
     direction -0.580585 -0.69168 0.429534   
     length 2.52018  
     axis 0 0 0  XYZ 
  end
  begin
     id 7 
     name rfemur
     direction -0.34202 -0.939693 0   
     length 7.0101   
     axis 0 0 -20   XYZ
    dof rx ry rz
    limits (-160.0 20.0)
           (-70.0 70.0)
           (-70.0 60.0)
  end
  begin
     id 8 
     name rtibia
     direction -0.34202 -0.939693 0   
     length 7.70628   
     axis 0 0 -20   XYZ
    dof rx
    limits (-10.0 170.0)
 end
 begin
     id 9 
     name rfoot
     direction -0.0696237 -0.19129 0.979061   
     length 2.52466  
     axis -90 -7.62852e-016 -20   XYZ
    dof rx rz
    limits (-45.0 90.0)
           (-20.0 70.0)
  end
  begin
     id 10 
     name rtoes
     direction -1.53519e-011 -4.21793e-011 1   
     length 1.266   
     axis -90 -7.62852e-016 -20   XYZ
    dof rx
    limits (-90.0 20.0)
  end
  begin
     id 11 
     name lowerback
     direction 0.00381965 0.995707 -0.0924856   
     length 2.20825   
     axis 0 0 0   XYZ
    dof rx ry rz
    limits (-20.0 45.0)
           (-30.0 30.0)
           (-30.0 30.0)
  end
  begin
     id 12 
     name upperback
     direction -0.0139043 0.999634 -0.0231929   
     length 2.21517   
     axis 0 0 0   XYZ
    dof rx ry rz
    limits (-20.0 45.0)
           (-30.0 30.0)
           (-30.0 30.0)
  end
  begin
     id 13 
     name thorax
     direction -0.0143933 0.999691 0.0202892   
     length 2.22911   
     axis 0 0 0   XYZ
    dof rx ry rz
    limits (-20.0 45.0)
           (-30.0 30.0)
           (-30.0 30.0)
  end
  begin
     id 14 
     name lowerneck
     direction -0.0251153 0.981819 0.188153   
     length 1.61782   
     axis 0 0 0   XYZ
    dof rx ry rz
    limits (-20.0 45.0)
           (-30.0 30.0)
           (-30.0 30.0)
  end
  begin
     id 15 
     name upperneck
     direction 0.0563891 0.969357 -0.239095   
     length 1.64526   
     axis 0 0 0   XYZ
    dof rx ry rz
    limits (-20.0 45.0)
           (-30.0 30.0)
           (-30.0 30.0)
  end
  begin
     id 16
     name head
     direction 0.0208328 0.99459 -0.101773  
     length 1.67436  
     axis 0 0 0   XYZ
    dof rx ry rz
    limits (-20.0 45.0)
           (-30.0 30.0)
           (-30.0 30.0)
  end
  begin
     id 17 
     name lclavicle
     direction 0.917689 0.397224 0.00772059  
     length 3.31102  
     axis 0 0 0   XYZ
    dof ry rz
    limits (-20.0 10.0)
           (0.0 20.0)
  end
  begin
     id 18 
     name lhumerus
     direction 1 -4.4896e-011 2.32308e-027   
     length 5.25537   
     axis 180 -30 -90   XYZ
    dof rx ry rz
    limits (-60.0 90.0)
           (-90.0 90.0)
           (-90.0 90.0)
  end
  begin
     id 19
     name lradius
     direction 1 -4.49005e-011 -2.04271e-027   
     length 3.38855   
     axis 180 -30 -90   XYZ
    dof rx
    limits (-10.0 170.0)
  end
  begin
     id 20
     name lwrist
     direction 1 -4.48892e-011 2.56952e-028   
     length 1.69428   
     axis -5.12785e-016 90 90   XYZ
    dof ry
    limits (-180.0 0.0)
 end
  begin
     id 21 
     name lhand
     direction 1 -4.48966e-011 5.13905e-028   
     length 0.614516   
     axis -3.27915e-016 90 90   XYZ
    dof rx rz
    limits (-90.0 90.0)
           (-45.0 45.0)
  end
  begin
     id 22 
     name lfingers
     direction 1 -4.48979e-011 1.02781e-027   
     length 0.495439   
     axis -6.5583e-016 90 90   XYZ
    dof rx
    limits (0.0 90.0)
  end
  begin
     id 23
     name lthumb
     direction 0.707107 -6.35001e-011 0.707107   
     length 0.711354   
     axis -90 45 2.85299e-015   XYZ
    dof rx rz
    limits (-45.0 45.0)
           (-45.0 45.0)
  end
  begin
     id 24 
     name rclavicle
     direction -0.938556 0.342765 -0.0403177   
     length 3.27019  
     axis 0 0 0   XYZ 
    dof ry rz
    limits (-10.0 20.0)
           (-20.0 0.0)
  end
  begin
     id 25 
     name rhumerus
     direction -1 -4.48966e-011 2.52291e-027  
     length 5.38183   
     axis 180 30 90   XYZ
    dof rx ry rz
    limits (-90.0 60.0)
           (-90.0 90.0)
           (-90.0 90.0)
  end
  begin
     id 26 
     name rradius
     direction -1 -4.4896e-011 1.5797e-027   
     length 3.16988   
     axis 180 30 90   XYZ
    dof rx
    limits (-10.0 170.0)
  end
  begin
     id 27 
     name rwrist
     direction -1 -4.48947e-011 2.56952e-028   
     length 1.58494   
     axis -5.12785e-016 -90 -90   XYZ
    dof ry
    limits (-180.0 0.0)
  end
  begin
     id 28
     name rhand
     direction -1 -4.49098e-011 5.13905e-028   
     length 0.637679   
     axis -3.27915e-016 -90 -90   XYZ
    dof rx rz
    limits (-90.0 90.0)
           (-45.0 45.0)
  end
  begin
     id 29
     name rfingers
     direction -1 -4.49026e-011 1.02781e-027   
     length 0.514113   
     axis -6.5583e-016 -90 -90   XYZ
    dof rx
    limits (0.0 90.0)
  end
  begin
     id 30
     name rthumb
     direction -0.707107 -6.3491e-011 0.707107   
     length 0.738167   
     axis -90 -45 -2.85299e-015   XYZ
    dof rx rz
    limits (-45.0 45.0)
           (-45.0 45.0)
  end
:hierarchy
  begin
    root lhipjoint rhipjoint lowerback
    lhipjoint lfemur
    lfemur ltibia
    ltibia lfoot
    lfoot ltoes
    rhipjoint rfemur
    rfemur rtibia
    rtibia rfoot
    rfoot rtoes
    lowerback upperback
    upperback thorax
    thorax lowerneck lclavicle rclavicle
    lowerneck upperneck
    upperneck head
    lclavicle lhumerus
    lhumerus lradius
    lradius lwrist
    lwrist lhand lthumb
    lhand lfingers
    rclavicle rhumerus
    rhumerus rradius
    rradius rwrist
    rwrist rhand rthumb
    rhand rfingers
  end

#!OML:ASF H:\Swim\Project 1\Capture day 1\Session 1\swimmer.ASF
:FULLY-SPECIFIED
:DEGREES
268
root 4.50984 17.4955 -22.2757 8.5102 1.07717 3.67367
lowerback 8.1411 0.376406 -6.1133
upperback 4.62056 0.0553049 -5.40663
thorax 0.24032 -0.0141019 -2.17655
lowerneck -26.5599 -7.09156 -10.9143
upperneck 26.0617 -9.18958 11.1594
head 14.5106 -3.5075 4.50993
rclavicle -9.14409e-015 -4.6118e-014
rhumerus -36.4892 26.3365 -91.5369
rradius 51.9691
rwrist 5.28252
rhand -13.2355 15.6934
rfingers 7.12502
rthumb 12.8661 -13.89
lclavicle -9.14409e-015 -4.6118e-014
lhumerus -40.8758 -13.7984 65.1818
lradius 52.7844
lwrist -11.9307
lhand -13.9621 0.880145
lfingers 7.12502
lthumb 12.1656 30.5064
rfemur -21.8219 -11.3734 15.1769
rtibia 62.7463
rfoot -7.44821 3.24133
rtoes -17.4084
lfemur -22.2721 -6.93032 -22.2894
ltibia 31.8285
lfoot -13.8824 6.17784
ltoes -4.00922
269
root 4.52432 17.4917 -22.135 8.46057 1.01804 3.70332
lowerback 8.14255 0.312469 -6.20622
upperback 4.62997 -0.0350589 -5.38585
thorax 0.250527 -0.0614815 -2.09611
lowerneck -26.5334 -7.01707 -10.8217
upperneck 26.1746 -9.13185 11.1463
head 14.54 -3.47554 4.50617
rclavicle 0 -3.18055e-014
rhumerus -36.6751 26.3729 -91.6226
rradius 51.6917
rwrist 4.71663
rhand -13.163 15.434
rfingers 7.12502
rthumb 12.9361 -14.1451
lclavicle 0 -3.18055e-014
lhumerus -40.6734 -14.0344 65.3568
lradius 53.189
lwrist -11.9971
lhand -14.035 0.837479
lfingers 7.12502
lthumb 12.0953 30.4679
rfemur -23.4778 -11.4028 15.5678
rtibia 62.9603
rfoot -8.20964 3.18121
rtoes -17.4884
lfemur -21.5889 -7.02546 -22.4416
ltibia 31.7228
lfoot -14.3203 6.44391
ltoes -4.0166
270
root 4.53744 17.4846 -21.9937 8.40447 0.966591 3.77676
lowerback 8.15128 0.243451 -6.34192
upperback 4.64 -0.135707 -5.37043
thorax 0.258278 -0.114633 -1.9968
lowerneck -26.507 -6.93793 -10.724
upperneck 26.2862 -9.06568 11.1227
head 14.5667 -3.44089 4.4988
rclavicle 4.77083e-015 -1.90833e-014
rhumerus -36.8497 26.383 -91.6845
rradius 51.4434
rwrist 4.24766
rhand -13.0777 15.1722
rfingers 7.12502
rthumb 13.0183 -14.4016
lclavicle 4.77083e-015 -1.90833e-014
lhumerus -40.4764 -14.2579 65.5315
lradius 53.5886
lwrist -12.0433
lhand -14.1045 0.792986
lfingers 7.12502
lthumb 12.0284 30.4273
rfemur -25.0922 -11.4075 15.9076
rtibia 63.0349
rfoot -9.03276 2.89873
rtoes -17.4549
lfemur -20.9035 -7.10134 -22.6422
ltibia 31.6294
lfoot -14.768 6.68766
ltoes -4.06128
271
root 4.54926 17.475 -21.8516 8.34186 0.926065 3.88326
lowerback 8.16583 0.168329 -6.50845
upperback 4.65648 -0.246532 -5.35656
thorax 0.270631 -0.173524 -1.88134
lowerneck -26.502 -6.85703 -10.6219
upperneck 26.3993 -8.99246 11.0866
head 14.5966 -3.40372 4.48686
rclavicle -9.93923e-015 -1.27222e-014
rhumerus -36.9914 26.3756 -91.7159
rradius 51.2054
rwrist 3.88124
rhand -13.0348 14.9532
rfingers 7.12502
rthumb 13.0596 -14.618
lclavicle -9.93923e-015 -1.27222e-014
lhumerus -40.2631 -14.47 65.7067
lradius 53.9671
lwrist -12.0642
lhand -14.1745 0.755572
lfingers 7.12502
lthumb 11.9608 30.3939
rfemur -26.6606 -11.4005 16.2059
rtibia 62.9622
rfoot -9.89523 2.41333
rtoes -17.3677
lfemur -20.2092 -7.1552 -22.8786
ltibia 31.5365
lfoot -15.2187 6.89653
ltoes -4.09431
272
root 4.55996 17.4633 -21.7081 8.27497 0.895728 4.0174
lowerback 8.18548 0.087391 -6.6979
upperback 4.67437 -0.366988 -5.3434
thorax 0.282893 -0.237635 -1.75326
lowerneck -26.5139 -6.77157 -10.5119
upperneck 26.5167 -8.9088 11.0338
head 14.6289 -3.36301 4.46874
rclavicle -5.96354e-015 -1.59028e-015
rhumerus -37.1229 26.3512 -91.7222
rradius 50.9996
rwrist 3.62022
rhand -13.0483 14.7741
rfingers 7.12502
rthumb 13.0466 -14.7979
lclavicle -5.96354e-015 -1.59028e-015
lhumerus -40.0388 -14.6736 65.8825
lradius 54.3234
lwrist -12.0661
lhand -14.2401 0.71841
lfingers 7.12502
lthumb 11.8976 30.3604
rfemur -28.1705 -11.3795 16.4615
rtibia 62.7335
rfoot -10.7741 1.77827
rtoes -17.2003
lfemur -19.501 -7.18669 -23.1444
ltibia 31.4316
lfoot -15.6634 7.06866
ltoes -4.13883
273
root 4.56982 17.4503 -21.5631 8.20397 0.874812 4.16569
lowerback 8.20682 0.000396714 -6.89462
upperback 4.69405 -0.495936 -5.32665
thorax 0.297355 -0.306232 -1.61689
lowerneck -26.5473 -6.68318 -10.3999
upperneck 26.6421 -8.81572 10.9674
head 14.667 -3.31918 4.44674
rclavicle -1.23246e-014 -5.40694e-014
rhumerus -37.2438 26.3209 -91.7038
rradius 50.82
rwrist 3.46096
rhand -13.1391 14.6431
rfingers 7.12502
rthumb 12.9591 -14.9344
lclavicle -1.23246e-014 -5.40694e-014
lhumerus -39.8066 -14.8725 66.0635
lradius 54.6572
lwrist -12.0481
lhand -14.3163 0.698339
lfingers 7.12502
lthumb 11.8241 30.3445
rfemur -29.6079 -11.3429 16.6819
rtibia 62.3342
rfoot -11.6438 1.0389
rtoes -16.9896
lfemur -18.7696 -7.19711 -23.426
ltibia 31.2993
lfoot -16.0928 7.21184
ltoes -4.20916
274
root 4.57908 17.4372 -21.4161 8.13289 0.86686 4.32294
lowerback 8.22506 -0.0927648 -7.08823
upperback 4.71307 -0.632496 -5.3063
thorax 0.314047 -0.378669 -1.47805
lowerneck -26.588 -6.59399 -10.2915
upperneck 26.7713 -8.71756 10.8956
head 14.7078 -3.27411 4.42422
rclavicle 2.38542e-015 3.18055e-015
rhumerus -37.3603 26.2849 -91.6662
rradius 50.6639
rwrist 3.39521
rhand -13.2777 14.5489
rfingers 7.12502
rthumb 12.8255 -15.0371
lclavicle 2.38542e-015 3.18055e-015
lhumerus -39.5572 -15.0689 66.2474
lradius 54.9559
lwrist -12.029
lhand -14.3894 0.706608
lfingers 7.12502
lthumb 11.7536 30.3568
rfemur -30.966 -11.2874 16.8683
rtibia 61.752
rfoot -12.4787 0.243364
rtoes -16.7798
lfemur -18.0106 -7.19686 -23.7162
ltibia 31.122
lfoot -16.499 7.32441
ltoes -4.25392
